<svg width="21" height="22" viewBox="0 0 21 22" fill="none" xmlns="http://www.w3.org/2000/svg">
  <g clip-path="url(#clip0_267_430)">
    <path d="M21.0003 11.2526C21.0003 10.5049 20.9413 9.75308 20.8153 9.01746H10.7109V13.2534H16.4972C16.2571 14.6195 15.4856 15.828 14.3559 16.596V19.3445H17.808C19.8352 17.4286 21.0003 14.5993 21.0003 11.2526Z" fill="#4285F4" />
    <path d="M10.7097 22C13.5989 22 16.0355 21.0259 17.8108 19.3445L14.3586 16.596C13.3982 17.267 12.1583 17.6469 10.7137 17.6469C7.91891 17.6469 5.54928 15.7108 4.69904 13.1078H1.13672V15.9412C2.95528 19.6557 6.65931 22 10.7097 22Z" fill="#34A853" />
    <path d="M4.69599 13.1078C4.24725 11.7417 4.24725 10.2624 4.69599 8.8962V6.06284H1.1376C-0.381803 9.17105 -0.381803 12.833 1.1376 15.9412L4.69599 13.1078Z" fill="#FBBC04" />
    <path d="M10.7097 4.35312C12.237 4.32887 13.7131 4.91899 14.8192 6.00221L17.8777 2.86167C15.941 0.994314 13.3706 -0.0323263 10.7097 8.85531e-06C6.65931 8.85531e-06 2.95528 2.3443 1.13672 6.06284L4.69511 8.89621C5.5414 6.28919 7.91498 4.35312 10.7097 4.35312Z" fill="#EA4335" />
  </g>
  <defs>
    <clipPath id="clip0_267_430">
      <rect width="21" height="22" fill="white" />
    </clipPath>
  </defs>
</svg>