<svg width="10" height="22" viewBox="0 0 10 22" fill="none" xmlns="http://www.w3.org/2000/svg">
  <path d="M7.85523 11.968H6.68529C4.84691 11.968 3.06418 10.5602 3.06418 7.03984C3.06418 3.37344 4.73563 1.87734 6.43453 1.87734H7.85523V11.968ZM9.6936 0H6.51837C3.39801 0 0.752488 2.49376 0.752488 7.3336C0.752488 10.2375 2.03371 12.3789 4.31796 13.4344L0.0558577 21.5305C-0.083621 21.7945 0.0558575 22 0.278414 22H2.25627C2.42318 22 2.53522 21.9414 2.59086 21.7945L6.46273 13.8453H7.85523V21.7945C7.85523 21.8828 7.93907 22 8.05035 22H9.77744C9.94436 22 10 21.9117 10 21.7656V0.292959C10 0.0882893 9.88872 0 9.6936 0Z" fill="#ED1E24" />
</svg>